<?xml version="1.0" encoding="UTF-8"?>
<svg id="Layer_1" xmlns="http://www.w3.org/2000/svg" version="1.1" viewBox="0 0 1800 1000">
  <!-- Generator: Adobe Illustrator 29.4.0, SVG Export Plug-In . SVG Version: 2.1.0 Build 152)  -->
  <defs>
    <style>
      .st0 {
        font-size: 65px;
        letter-spacing: .02em;
      }

      .st0, .st1 {
        font-family: AktivGrotesk-Bold, 'Aktiv Grotesk';
        font-weight: 700;
      }

      .st0, .st1, .st2, .st3 {
        isolation: isolate;
      }

      .st4 {
        fill: #60db4f;
      }

      .st1, .st3 {
        font-size: 60px;
        letter-spacing: .02em;
      }

      .st3 {
        font-family: AktivGrotesk-SemiBold, 'Aktiv Grotesk';
        font-weight: 600;
      }

      .st5 {
        fill: #d5ca18;
      }

      .st6 {
        fill: #ffe000;
      }

      .st7 {
        fill: #4db18e;
      }

      .st8 {
        fill: #3a86cc;
      }

      .st9 {
        fill: #f08912;
      }

      .st10 {
        fill: #b0de28;
      }

      .st11 {
        fill: #f78c0d;
      }

      .st12 {
        fill: #fbb607;
      }

      .st13 {
        fill: #e45b1c;
      }

      .st14 {
        fill: #d12a2a;
      }

      .st15 {
        fill: #7fc85b;
      }
    </style>
  </defs>
  <g>
    <path class="st8" d="M1485.27,649.2h-118.86c-98.04,0-153.36-42.52-186.88-98.92,36.79-75.29,39.24-166.08,75.74-166.08,62.36,0,25.32,265,230,265Z"/>
    <path class="st14" d="M588.61,559.66c-21.76,50.97-54.33,89.54-108.84,89.54h-164.5c175.19,0,144.61-220,205-220,33.96,0,39.15,69.56,68.34,130.46Z"/>
    <path class="st13" d="M665.59,638.56c-19.53,6.87-41.63,10.64-66.66,10.64h-119.16c54.51,0,87.08-38.57,108.84-89.54,15.82,32.99,38.68,63.44,76.98,78.9h0Z"/>
    <path class="st11" d="M760.76,556.89c-22.26,37.16-52.66,66.73-95.17,81.67-38.3-15.46-61.16-45.91-76.98-78.9,42.38-99.24,43.83-245.46,86.66-245.46s44.25,143.53,85.49,242.69h0Z"/>
    <path class="st7" d="M1366.41,649.2h-224.3c-22.02,0-41.77-2.92-59.5-8.3,48.55-15.5,77.51-50.9,96.92-90.62,33.52,56.4,88.84,98.92,186.88,98.92Z"/>
    <path class="st4" d="M1179.53,550.28c-19.41,39.72-48.37,75.12-96.92,90.62-50.7-15.37-84.92-50.82-108.8-95.45,62.73-110.99,45.54-271.25,101.46-271.25s38.21,164.97,104.26,276.08Z"/>
    <path class="st9" d="M725.27,649.2h-126.34c25.03,0,47.13-3.77,66.66-10.64,16.72,6.75,36.38,10.64,59.68,10.64h0Z"/>
    <path class="st12" d="M838.73,644.18c-16.55,3.27-34.7,5.02-54.6,5.02h-58.86c-23.3,0-42.96-3.89-59.68-10.64,42.51-14.94,72.91-44.51,95.17-81.67,17.2,41.36,41.26,74.98,77.97,87.29Z"/>
    <path class="st5" d="M870.77,649.2h-86.64c19.9,0,38.05-1.75,54.6-5.02h.02c9.74,3.26,20.38,5.02,32.02,5.02Z"/>
    <path class="st10" d="M1082.61,640.9c-16.67,5.32-35.65,8.3-57.34,8.3h-154.5c-11.64,0-22.28-1.76-32.02-5.02,67.3-13.28,108.4-51.55,135.06-98.73,23.88,44.63,58.1,80.08,108.8,95.45Z"/>
    <path class="st6" d="M973.81,545.45c-26.66,47.18-67.76,85.45-135.06,98.73h-.02c-36.71-12.31-60.77-45.93-77.97-87.29,80.45-134.29,54.57-367.69,109.51-367.69h.5c53.41,0,30.44,220.58,103.04,356.25Z"/>
    <path class="st15" d="M1142.11,649.2h-116.84c21.69,0,40.67-2.98,57.34-8.3,17.73,5.38,37.48,8.3,59.5,8.3Z"/>
  </g>
  <g class="st2">
    <text class="st0" transform="translate(150.43 756.78)"><tspan x="0" y="0">&gt;HPLC:</tspan></text>
    <text class="st1" transform="translate(385.86 756.78)"><tspan x="0" y="0"> </tspan></text>
    <text class="st3" transform="translate(400.44 756.78)"><tspan x="0" y="0">Automated Chromatogram Peak Detection</tspan></text>
  </g>
</svg>